<svg width="4197" height="493" fill="none" xmlns="http://www.w3.org/2000/svg">
  <path
    d="M4192.53 379.568c-20.01 80.157-101.2 128.948-181.36 108.949-80.16-19.984-128.95-101.172-108.95-181.324 19.98-80.167 101.17-128.953 181.33-108.969 80.16 19.985 128.95 101.182 108.98 181.344z"
    fill="#F7931A" />
  <path
    d="M4113.35 322.056c2.97-19.908-12.17-30.612-32.91-37.751l6.71-26.971-16.41-4.091-6.56 26.26c-4.3-1.076-8.73-2.091-13.14-3.096l6.59-26.432-16.41-4.091-6.73 26.961c-3.57-.815-7.07-1.618-10.49-2.466l.03-.084-22.64-5.652-4.38 17.533s12.18 2.792 11.93 2.965c6.66 1.66 7.85 6.06 7.65 9.549l-7.65 30.723c.45.116 1.04.286 1.7.547l-1.73-.431-10.73 43.042c-.84 2.02-2.89 5.05-7.55 3.899.18.237-11.92-2.978-11.92-2.978l-8.15 18.792 21.36 5.324c3.98.998 7.88 2.041 11.7 3.023l-6.78 27.278 16.4 4.09 6.71-26.988c4.48 1.215 8.84 2.339 13.09 3.394l-6.71 26.863 16.44 4.091 6.78-27.227c28 5.298 49.04 3.162 57.93-22.159 7.14-20.384-.38-32.146-15.09-39.814 10.71-2.473 18.81-9.529 20.96-24.103zm-37.52 52.598c-5.06 20.387-39.39 9.365-50.54 6.603l9.02-36.141c11.14 2.78 46.81 8.278 41.52 29.538zm5.09-52.892c-4.63 18.544-33.22 9.121-42.48 6.813l8.17-32.779c9.27 2.311 39.12 6.623 34.31 25.966z"
    fill="#fff" />
  <path
    d="M3656.1 5.924v111.895h92.16v373.204h111.25V117.819h92.82V5.924H3656.1zM3632.85 7.898l-310.05.659v482.466h310.05V379.786h-198.8v-76.352h161.28V192.197h-161.28v-73.061h198.8V7.898zM3128.66 490.365c63.19 0 123.75-23.038 171.15-70.429l-78.34-78.984c-51.34 51.34-134.29 50.682-184.97 0-24.36-25.671-38.18-57.265-38.18-92.15 0-34.885 13.82-67.137 38.18-92.807 50.68-50.682 133.63-51.34 184.97 0l78.34-78.327c-94.79-94.781-247.52-94.781-342.31 0-45.42 45.417-70.44 105.314-70.44 171.134 0 65.163 25.02 124.402 70.44 171.134 47.4 47.391 108.62 70.429 171.16 70.429zM2932.44 492.998L2776.42 9.873H2671.1l-164.58 483.125h117.84l19.75-58.581h152.06l19.09 58.581h117.18zm-210-286.979l38.18 117.161h-78.33l40.15-117.161zM2428.85 304.75L2336.03 5.924h-117.18l156.02 487.074h105.32L2644.76 5.924h-117.83l-98.08 298.826zM2028.96 7.24h-111.25v485.758h111.25c131-7.241 231.72-109.921 231.72-239.588 0-130.983-102.69-238.271-231.72-245.512V7.24zm0 111.895c67.8 7.241 120.47 65.163 120.47 134.275 0 67.137-52.01 120.452-120.47 127.692V119.135zM1910.11 491.023L1754.1 7.898h-105.33L1484.2 491.023h117.84l19.75-58.581h152.06l19.09 58.581h117.17zm-209.99-286.979l38.18 117.161h-78.33l40.15-117.161zM1367.38 290.27L1210.05 9.215h-121.12v481.808h111.25V209.31l157.99 281.713h120.46V7.898h-111.25V290.27zM834.068 5.266H722.817v485.757h111.251c130.999-7.24 231.712-109.921 231.712-239.588 0-130.983-102.688-238.27-231.712-245.511v-.658zm0 111.895c67.803 7.24 120.466 65.162 120.466 134.274 0 67.137-52.005 120.452-120.466 127.693V117.161zM700.03 7.898l-310.053.659v482.466H700.03V379.786H501.227v-76.352h161.281V192.197H501.227v-73.061H700.03V7.898zM255.433 0v308.041c0 40.809-33.573 71.745-72.412 71.745-19.749 0-36.864-7.24-51.346-21.721-13.824-14.481-20.407-31.594-20.407-51.34L.017 305.408c-.658 50.024 17.774 95.44 52.005 130.325 34.889 34.885 79.653 54.632 129.683 55.29h1.974c99.402 0 183.004-80.301 183.004-182.324V0h-111.25z"
    fill="#000" />
</svg>
